<svg xmlns="http://www.w3.org/2000/svg" id="Capa_1" data-name="Capa 1" viewBox="0 0 1821.97 411.03"><defs><style>      .cls-1 {        fill: #fff;      }      .cls-2 {        fill: #ff5100;      }    </style></defs><g><path class="cls-1" d="m71.98,381.22c34.03,18.91,73.77,28.37,125.09,29.81h.19l.21-.02c6.1-.6,12.2-1.09,18.31-1.6,13.16-1.08,26.76-2.2,40.02-4.42,78.48-13.15,148.04-44.36,206.75-92.78,36.2-29.84,61.89-61.72,78.53-97.5,17.81-38.26,21.47-73.3,11.16-107.05-12.19-39.91-39.93-68.56-84.78-87.58C422.04.82,372.05-4.5,311.81,3.76c-66.34,9.1-128.19,32.63-183.87,69.93-52.52,35.2-88.86,75.06-111.11,121.84C1.21,228.35-3.47,259.32,2.51,290.2c7.58,38.98,30.94,69.62,69.47,91.02ZM19.74,225.3c9.69-31.79,27.98-61.38,55.93-90.48,35.87-37.34,79.29-66.33,132.75-88.6,41.88-17.45,81.78-27.43,121.96-30.5,7.13-.55,14.27-.96,21.41-1.37l9.88-.6h.06c38.53,0,71.94,6.53,102.56,19.97,38.2,16.78,62.57,41.15,74.5,74.51,8.05,22.48,8.38,46.63,1,73.82-5.88,21.68-16.15,42.76-30.54,62.63-25.16,34.78-56.71,63.77-96.46,88.66-32.97,20.62-67.65,36.47-103.07,47.07-25.49,7.63-52.94,14.85-81.05,15.92l-2.25.09c-11.31.44-23,.89-34.53.89-10.76,0-20.24-.4-28.99-1.2-46.93-4.36-83.33-18.8-111.25-44.14-36.64-33.25-47.37-75.87-31.9-126.66Z"></path><path class="cls-1" d="m125.66,284.59c6.76.04,13.54,0,20.32,0h112.78c11.11,0,21.57-1.65,30.11-9.7,7.16-6.75,10.38-16.67,14.24-25.5,5.55-12.66,11.09-25.33,16.64-38.01,3.67-8.38,7.27-16.78,10.99-25.14,8.09-18.19,23.44-32.34,42.49-38.32-.15.33-.38.68-.44,1.01-.53,2.49-2.29,5.21-3.3,7.54-1.91,4.35-3.79,8.67-5.68,13.02-5.2,11.84-10.38,23.7-15.57,35.54-8.05,18.39-16.22,36.72-24.14,55.15-2.14,4.99-2.37,10.41.21,15.32,4.34,8.23,13.66,10.39,22.2,8.42,8.06-1.86,14.52-7.48,17.93-14.95.78-1.7,1.49-3.4,2.23-5.11,9.39-21.44,18.79-42.9,28.18-64.37,6.85-15.69,13.72-31.37,20.58-47.05,11.96,10.04,14.88,26.25,8.79,40.32-2.96,6.86-6,13.7-8.99,20.55-7.21,16.49-14.43,32.99-21.64,49.48-.56,1.26-1.17,2.51-1.66,3.8-2.33,5.86-.55,12.63,4.92,16.07,5.33,3.35,13.2,2.14,18.74,0,6.8-2.61,12.45-7.75,15.69-14.26,6.33-12.63,11.43-26.01,17.1-38.97,5.57-12.74,11.15-25.48,16.73-38.24,2.25-5.12,3.8-10.56,4.54-16.11,2.84-21.24-9.23-41.14-26.41-53.87-19.12-14.16-46.44-14.71-68.58-9.41-23.02,5.5-38.89,17-55.8,33.55-13.13,12.86-22.7,28.12-30.03,44.87-5.83,13.32-11.66,26.65-17.49,40-2.29,5.21-4.59,10.44-6.87,15.68-.93,2.1-.78,1.91-3.05,1.91h-82.1c-10.54,0-21.09.01-31.64,0-18.31-.05-31.94-13.07-33.16-31.95l5.71.04h47.31c18.69,0,37.4.06,56.09,0,14.51-.05,27.54-9.52,29.84-24.36,1.14-7.43-1.91-14.6-10.27-14.91-1.71-.06-3.44,0-5.14,0h-109.03c7.12-8.54,15.85-15.69,25.57-21.02,14.72-8.05,30.6-10.88,47.19-10.88h55.6c4.97,0,9.71-.23,14.26-2.67,6.78-3.66,13.11-12.88,12.43-20.95-.64-7.86-7.27-13.07-14.85-13.21-11.24-.18-22.48,0-33.71,0s-22.19.26-33.25.39c-44.97.5-82.14,24.38-108,58-6.47,8.42-12.03,17.51-16.58,27.12-3.14,6.63-6.42,13.54-8.16,20.69-4.37,18.04.63,37.45,12.93,51.32,10.99,12.42,26.69,19.13,43.19,19.2Z"></path><path class="cls-2" d="m51.64,351.97c27.93,25.34,64.32,39.78,111.25,44.14,8.74.8,18.23,1.2,28.99,1.2,11.54,0,23.23-.45,34.53-.89l2.25-.09c28.11-1.07,55.57-8.29,81.05-15.92,35.42-10.6,70.1-26.45,103.07-47.07,39.76-24.88,71.3-53.88,96.46-88.66,14.39-19.88,24.66-40.96,30.54-62.63,7.38-27.19,7.06-51.34-1-73.82-11.92-33.36-36.3-57.73-74.5-74.51-30.62-13.44-64.03-19.97-102.56-19.97h-.06l-9.88.6c-7.14.41-14.28.83-21.41,1.37-40.18,3.07-80.08,13.05-121.96,30.5-53.45,22.27-96.88,51.26-132.75,88.6-27.95,29.09-46.24,58.69-55.93,90.48-15.47,50.79-4.74,93.42,31.9,126.66Zm17.9-137.89c1.74-7.15,5.02-14.06,8.16-20.69,4.54-9.61,10.1-18.7,16.58-27.12,25.87-33.61,63.03-57.5,108-58,11.06-.13,22.21-.39,33.25-.39s22.46-.18,33.71,0c7.58.15,14.21,5.36,14.85,13.21.68,8.06-5.66,17.29-12.43,20.95-4.54,2.44-9.29,2.67-14.26,2.67h-55.6c-16.59,0-32.47,2.83-47.19,10.88-9.73,5.33-18.46,12.48-25.57,21.02h109.03c1.7,0,3.42-.06,5.14,0,8.37.32,11.41,7.48,10.27,14.91-2.29,14.84-15.32,24.31-29.84,24.36-18.69.06-37.4,0-56.09,0h-47.31l-5.71-.04c1.23,18.88,14.85,31.9,33.16,31.95,10.55.01,21.1,0,31.64,0h82.1c2.27,0,2.11.19,3.05-1.91,2.28-5.23,4.58-10.47,6.87-15.68,5.83-13.35,11.66-26.68,17.49-40,7.33-16.75,16.9-32.01,30.03-44.87,16.9-16.55,32.77-28.05,55.8-33.55,22.15-5.29,49.46-4.75,68.58,9.41,17.18,12.73,29.25,32.63,26.41,53.87-.74,5.55-2.29,10.99-4.54,16.11-5.59,12.76-11.16,25.5-16.73,38.24-5.67,12.96-10.77,26.34-17.1,38.97-3.24,6.51-8.89,11.64-15.69,14.26-5.54,2.14-13.41,3.35-18.74,0-5.46-3.44-7.25-10.2-4.92-16.07.5-1.29,1.1-2.54,1.66-3.8,7.21-16.49,14.43-32.99,21.64-49.48,2.99-6.85,6.02-13.69,8.99-20.55,6.08-14.06,3.17-30.27-8.79-40.32-6.86,15.69-13.73,31.37-20.58,47.05-9.4,21.47-18.8,42.93-28.18,64.37-.74,1.71-1.46,3.41-2.23,5.11-3.41,7.47-9.87,13.09-17.93,14.95-8.54,1.98-17.86-.18-22.2-8.42-2.57-4.92-2.34-10.33-.21-15.32,7.92-18.43,16.09-36.77,24.14-55.15,5.19-11.84,10.37-23.7,15.57-35.54,1.89-4.35,3.78-8.67,5.68-13.02,1.01-2.33,2.77-5.05,3.3-7.54.06-.33.29-.68.44-1.01-19.05,5.99-34.4,20.13-42.49,38.32-3.72,8.35-7.32,16.76-10.99,25.14-5.55,12.68-11.09,25.34-16.64,38.01-3.86,8.83-7.08,18.75-14.24,25.5-8.55,8.05-19,9.7-30.11,9.7h-112.78c-6.78,0-13.55.04-20.32,0-16.5-.07-32.2-6.78-43.19-19.2-12.3-13.87-17.3-33.27-12.93-51.32Z"></path></g><g><g><path class="cls-1" d="m1767.85,67.39c-40.75-9.01-81.01,11.34-105.33,45.27-18.45,25.71-25.63,48.18-36.41,72.83-3.89,8.85-8.85,17.83-11.83,27.03-6.35,19.61,16.04,28.44,29.81,16.31,6.33-5.57,9.14-15.36,12.43-22.87,5.56-12.75,11.14-25.49,16.7-38.24,11.65-26.64,23.13-51.6,52.07-63.69,17.34-7.26,39.49-10.14,54.75,7.67,8.14,9.5,2.73,21.2-1.8,31.57-9.86,22.55-20.28,44.93-29.61,67.71-4.65,11.39-2.09,24.35,13.19,23.67,13.3-.56,20.25-10.44,25.11-21.34,10.93-24.55,24.31-48.23,32.31-73.88,11.14-35.68-13.33-63.63-51.41-72.06Z"></path><path class="cls-1" d="m1210.03,90.41c-10.84-17.72-29-26.81-51.13-28.65-49.23-4.09-94.12,29.24-113.91,74.51,0,0-43.1,89.29,41.98,98.5h4.94c41.1,1.17,79.55-18.82,103.05-52.41,8.34-11.94,14.64-25.5,19.9-39.06,6.73-17.34,4.91-37.05-4.82-52.9Zm-32.79,50.95s-22.59,60.93-74.63,57.38c-49.67-3.4-20.55-57.3-20.55-57.3,9.82-16.22,23.86-33.05,42.94-39.65,8.9-3.07,19.96-4.72,29.36-3.12,8.69,1.47,12.73,2.74,21.07,12.79,6.56,7.89,5.9,20.55,1.81,29.91Z"></path><path class="cls-1" d="m1606.66,182.54c8.33-11.92,14.64-25.5,19.9-39.05,6.73-17.34,4.89-37.06-4.82-52.91-10.86-17.72-29.01-26.81-51.13-28.65-49.23-4.09-94.12,29.25-113.93,74.51,0,0-43.1,89.3,41.99,98.5h4.94c41.1,1.17,79.55-18.82,103.05-52.41Zm-92.34,16.37c-49.68-3.4-20.55-57.3-20.55-57.3,9.82-16.22,23.86-33.05,42.94-39.63,8.89-3.07,19.95-4.74,29.35-3.13,8.69,1.47,12.74,2.74,21.07,12.79,6.56,7.89,5.91,20.55,1.81,29.92,0,0-22.57,60.93-74.62,57.36Z"></path><path class="cls-1" d="m1404.98,219.58l60.44-138.12c4.07-9.29-2.74-19.7-12.88-19.7-13.22,0-25.18,7.82-30.48,19.94l-56.81,129.87c-4.81,10.94,3.23,23.2,15.17,23.2h1.34c10.08,0,19.2-5.96,23.23-15.2Z"></path><path class="cls-1" d="m1030.82,143.33c2.2-5.03,3.72-10.36,4.46-15.8,2.78-20.79-9.03-40.27-25.86-52.74-18.71-13.85-45.48-14.39-67.15-9.22-22.54,5.39-38.08,16.66-54.63,32.86-12.86,12.59-22.21,27.53-29.39,43.92-5.72,13.05-11.43,26.11-17.15,39.16-2.25,5.12-4.48,10.24-6.72,15.36-.91,2.06-.76,1.86-3,1.86h-80.37c-10.33,0-20.67.01-30.99,0-17.92-.05-30.04-12.74-31.23-31.22l4.35-.02h46.31c18.31,0,36.62.06,54.93,0,14.21-.05,26.97-9.31,29.22-23.85,1.1-7.26-1.88-14.29-10.08-14.6-1.65-.07-3.35,0-5.01,0h-106.12c6.97-8.34,14.86-15.37,24.4-20.58,14.4-7.88,29.96-10.65,46.19-10.65h54.45c4.87,0,9.52-.22,13.96-2.61,6.64-3.59,12.84-12.62,12.18-20.52-.63-7.67-7.13-12.79-14.55-12.92-11-.19-22,0-32.99,0s-21.74.25-32.56.36c-44.03.49-82.18,21.13-107.5,54.04-6.34,8.23-12.08,18.54-15.7,28.52-3.24,8.95-4.84,13.1-6.78,21.03-4.29,17.68.63,36.67,12.65,50.25,10.77,12.17,26.14,18.72,42.29,18.81,6.64.04,13.27,0,19.9,0h110.42c10.89,0,21.13-1.63,29.5-9.5,7.02-6.62,10.18-16.33,13.95-24.99,5.44-12.39,10.87-24.8,16.28-37.19,3.59-8.21,7.14-16.44,10.77-24.63,7.91-17.79,22.95-31.64,41.59-37.51-.12.32-.35.66-.43.98-.52,2.44-2.23,5.1-3.23,7.37-1.86,4.26-3.72,8.5-5.57,12.75-5.08,11.61-10.15,23.21-15.24,34.81-7.87,17.98-15.88,35.93-23.63,53.99-2.09,4.91-2.32,10.19.21,15.01,4.24,8.06,13.37,10.19,21.74,8.25,7.89-1.81,14.21-7.32,17.56-14.64.75-1.64,1.46-3.33,2.19-5,9.19-21.01,18.4-42.01,27.59-63.02,6.72-15.36,13.43-30.72,20.16-46.07,11.71,9.82,14.57,25.71,8.61,39.46-2.9,6.73-5.87,13.41-8.8,20.12-7.06,16.15-14.12,32.29-21.19,48.45-.55,1.24-1.13,2.47-1.63,3.73-2.28,5.74-.53,12.35,4.82,15.73,5.22,3.28,12.92,2.09,18.35,0,6.65-2.55,12.18-7.59,15.36-13.95,6.19-12.37,11.2-25.48,16.73-38.15,5.46-12.48,10.92-24.97,16.38-37.44Z"></path><path class="cls-1" d="m1409.22,74.93c0-7.59-6.1-12.71-13.26-13.16-15.45-.97-31.26,0-46.73,0h-74.04c-17.15,0-41.57-3.41-46.03,19.25-1.68,8.49,2.66,16.13,11.78,16.81l50.92.35h.96s-14.38,32.81-14.38,32.81c-4.55,10.41-9.11,20.83-13.66,31.24-7.16,16.36-15.28,32.62-21.59,49.34-7.2,19.09,15.12,28.31,29.61,19.55,7.46-4.49,10.26-11.79,13.53-19.26,7.95-18.14,15.87-36.3,23.81-54.43l27-59.47,35.39-.17c18.11.19,36.5-.5,36.71-22.85Z"></path></g><g><path class="cls-1" d="m1702.22,277.12c-2.51,0-4.31,1.88-4.31,4.31s1.73,4.23,4.15,4.23c2.74,0,4.46-1.88,4.39-4.23,0-2.43-1.65-4.31-4.23-4.31Z"></path><path class="cls-1" d="m1104.52,277.2l-9.4,25.54c-2.35,6.66-4.23,12.45-5.56,17.78h-.24c-1.33-5.48-3.13-11.28-5.33-17.78l-9.01-25.54h-8.69l-3.68,52.79h6.5l1.41-22.64c.47-7.91.86-16.76,1.02-23.34h.16c1.49,6.27,3.6,13.08,6.11,20.52l8.54,25.14h5.17l9.32-25.61c2.66-7.28,4.86-13.86,6.66-20.05h.24c-.08,6.58.39,15.43.78,22.79l1.33,23.18h6.66l-3.29-52.79h-8.69Z"></path><polygon class="cls-1" points="1150.17 275.71 1142.57 275.71 1135.68 286.91 1140.62 286.91 1150.17 275.71"></polygon><path class="cls-1" d="m1176.72,307.98c-4.94-1.88-7.21-3.29-7.21-6.42,0-2.82,2.27-5.17,6.35-5.17,3.52,0,6.27,1.25,7.75,2.19l1.72-5.01c-2.11-1.25-5.48-2.35-9.32-2.35-8.14,0-13.08,5.01-13.08,11.12,0,4.54,3.21,8.3,10.03,10.73,5.09,1.88,7.05,3.68,7.05,6.97s-2.35,5.64-7.36,5.64c-3.45,0-7.05-1.41-9.09-2.74l-1.72,5.25c2.66,1.57,6.5,2.59,10.65,2.59,9.01,0,14.18-4.7,14.18-11.36,0-5.64-3.37-8.93-9.95-11.43Z"></path><path class="cls-1" d="m1287.93,292.08h-6.89v23.26c0,1.25-.23,2.51-.63,3.52-1.25,3.05-4.46,6.27-9.08,6.27-6.27,0-8.46-4.86-8.46-12.06v-20.99h-6.89v22.17c0,13.31,7.13,16.6,13.08,16.6,6.74,0,10.73-3.99,12.53-7.05h.16l.39,6.19h6.11c-.23-2.98-.31-6.42-.31-10.34v-27.57Z"></path><polygon class="cls-1" points="1362.25 277.2 1355.43 277.2 1355.43 329.99 1384.81 329.99 1384.81 324.28 1362.25 324.28 1362.25 277.2"></polygon><rect class="cls-1" x="1392.17" y="274.38" width="6.89" height="55.61"></rect><path class="cls-1" d="m1467.27,291.22c-6.27,0-10.65,3.52-12.53,7.13h-.16l-.39-6.27h-6.11c.23,3.14.31,6.35.31,10.26v27.65h6.89v-22.79c0-1.18.16-2.35.47-3.21,1.17-3.84,4.7-7.05,9.24-7.05,6.5,0,8.77,5.09,8.77,11.2v21.85h6.89v-22.64c0-13-8.15-16.14-13.39-16.14Z"></path><path class="cls-1" d="m1500.17,281.19l-6.74,1.8v9.08h-5.87v5.25h5.87v20.68c0,4.46.7,7.83,2.66,9.87,1.64,1.88,4.23,2.9,7.44,2.9,2.66,0,4.78-.39,6.11-.94l-.31-5.17c-.86.24-2.19.47-3.99.47-3.84,0-5.17-2.66-5.17-7.36v-20.44h9.87v-5.25h-9.87v-10.89Z"></path><path class="cls-1" d="m1567.76,307.98c-4.94-1.88-7.21-3.29-7.21-6.42,0-2.82,2.27-5.17,6.35-5.17,3.53,0,6.27,1.25,7.75,2.19l1.72-5.01c-2.11-1.25-5.48-2.35-9.32-2.35-8.15,0-13.08,5.01-13.08,11.12,0,4.54,3.21,8.3,10.03,10.73,5.09,1.88,7.05,3.68,7.05,6.97s-2.35,5.64-7.36,5.64c-3.45,0-7.05-1.41-9.09-2.74l-1.72,5.25c2.66,1.57,6.5,2.59,10.65,2.59,9.01,0,14.18-4.7,14.18-11.36,0-5.64-3.37-8.93-9.95-11.43Z"></path><path class="cls-1" d="m1618.97,316.73c-.94,2.74-1.72,5.64-2.43,7.91h-.16c-.63-2.27-1.57-5.25-2.43-7.75l-8.3-22.4h-7.52l14.02,34.94c.31.86.47,1.41.47,1.8s-.23.94-.55,1.65c-1.57,3.52-3.92,6.19-5.8,7.68-2.03,1.72-4.31,2.82-6.03,3.37l1.72,5.8c1.72-.31,5.09-1.49,8.46-4.46,4.7-4.07,8.07-10.73,13-23.73l10.34-27.02h-7.29l-7.52,22.25Z"></path><path class="cls-1" d="m1679.44,304.85v-.24c5.56-1.88,9.95-6.5,9.95-13.47,0-4.07-1.49-7.68-4.15-10.03-3.29-2.98-7.99-4.31-15.27-4.31-4.7,0-9.63.39-13.08,1.1v52.09h6.81v-22.87h6.42c6.19.24,9.01,2.98,10.58,10.26,1.49,6.58,2.66,11.12,3.52,12.61h7.05c-1.1-2.04-2.35-7.13-4.07-14.49-1.25-5.48-3.68-9.24-7.75-10.65Zm-8.77-2.9h-6.97v-19.27c1.1-.31,3.45-.63,6.74-.63,7.21.08,12.14,3.06,12.14,9.87,0,6.03-4.62,10.03-11.9,10.03Z"></path><rect class="cls-1" x="1698.77" y="292.08" width="6.89" height="37.91"></rect><path class="cls-1" d="m1735.98,291.22c-6.27,0-10.65,3.52-12.53,7.13h-.16l-.39-6.27h-6.11c.23,3.14.31,6.35.31,10.26v27.65h6.89v-22.79c0-1.18.16-2.35.47-3.21,1.17-3.84,4.7-7.05,9.24-7.05,6.5,0,8.77,5.09,8.77,11.2v21.85h6.89v-22.64c0-13-8.15-16.14-13.39-16.14Z"></path><path class="cls-1" d="m1775.6,291.22c-11.04,0-17.78,9.01-17.78,20.44s6.97,19.11,18.64,19.11c6.03,0,10.18-1.25,12.61-2.35l-1.18-4.93c-2.58,1.1-5.56,1.96-10.5,1.96-6.89,0-12.84-3.84-13-13.16h26.63c.08-.7.23-1.8.23-3.21,0-6.97-3.29-17.86-15.67-17.86Zm-11.12,16.14c.55-4.78,3.6-11.2,10.58-11.2,7.75,0,9.63,6.82,9.56,11.2h-20.13Z"></path><path class="cls-1" d="m1812.02,307.98c-4.94-1.88-7.21-3.29-7.21-6.42,0-2.82,2.27-5.17,6.35-5.17,3.53,0,6.27,1.25,7.75,2.19l1.72-5.01c-2.11-1.25-5.48-2.35-9.32-2.35-8.15,0-13.08,5.01-13.08,11.12,0,4.54,3.21,8.3,10.03,10.73,5.09,1.88,7.05,3.68,7.05,6.97s-2.35,5.64-7.36,5.64c-3.45,0-7.05-1.41-9.08-2.74l-1.72,5.25c2.66,1.57,6.5,2.59,10.65,2.59,9.01,0,14.18-4.7,14.18-11.36,0-5.64-3.37-8.93-9.95-11.43Z"></path><path class="cls-1" d="m1153.38,306.73c0-7.6-2.82-15.51-14.41-15.51-4.78,0-9.32,1.33-12.45,3.37l1.57,4.54c2.66-1.72,6.34-2.82,9.87-2.82,7.75,0,8.62,5.64,8.62,8.77v.78c-14.65-.08-22.79,4.94-22.79,14.1,0,5.48,3.92,10.89,11.59,10.89,5.4,0,9.48-2.66,11.59-5.64h.23l.55,4.78h6.27c-.47-2.58-.63-5.8-.63-9.09v-14.17Zm-6.66,10.5c0,.7-.16,1.49-.39,2.19-1.1,3.21-4.23,6.35-9.16,6.35-3.52,0-6.5-2.11-6.5-6.58,0-7.36,8.54-8.69,16.06-8.54v6.58Z"></path><path class="cls-1" d="m1238.36,297.8h-.16c-1.88-3.68-5.79-6.58-11.67-6.58-7.99,0-17.15,6.27-17.15,20.44,0,11.51,7.21,19.19,16.06,19.19,6.11,0,10.34-2.98,12.37-6.74h.16v21.38h6.89v-43c0-3.91.08-7.2.23-10.42h-6.5l-.23,5.72Zm-.39,16.76c0,1.02-.23,2.35-.55,3.29-1.57,4.78-5.4,7.52-9.87,7.52-7.6,0-11.2-6.58-11.2-14.1,0-8.54,4.31-14.57,11.43-14.57,5.17,0,8.85,3.6,9.87,7.83.23.86.31,1.96.31,2.9v7.13Z"></path><path class="cls-1" d="m1314.4,291.22c-11.04,0-17.78,9.01-17.78,20.44s6.97,19.11,18.64,19.11c6.03,0,10.18-1.25,12.61-2.35l-1.18-4.93c-2.58,1.1-5.56,1.96-10.49,1.96-6.89,0-12.85-3.84-13-13.16h26.63c.08-.7.23-1.8.23-3.21,0-6.97-3.29-17.86-15.67-17.86Zm-11.12,16.14c.55-4.78,3.6-11.2,10.58-11.2,7.75,0,9.63,6.82,9.55,11.2h-20.13Z"></path><path class="cls-1" d="m1437.28,306.73c0-7.6-2.82-15.51-14.41-15.51-4.78,0-9.32,1.33-12.45,3.37l1.57,4.54c2.66-1.72,6.34-2.82,9.87-2.82,7.75,0,8.62,5.64,8.62,8.77v.78c-14.65-.08-22.79,4.94-22.79,14.1,0,5.48,3.92,10.89,11.59,10.89,5.4,0,9.48-2.66,11.59-5.64h.23l.55,4.78h6.27c-.47-2.58-.63-5.8-.63-9.09v-14.17Zm-6.66,10.5c0,.7-.16,1.49-.39,2.19-1.1,3.21-4.23,6.35-9.16,6.35-3.53,0-6.5-2.11-6.5-6.58,0-7.36,8.54-8.69,16.06-8.54v6.58Z"></path><path class="cls-1" d="m1544.42,306.73c0-7.6-2.82-15.51-14.41-15.51-4.78,0-9.32,1.33-12.45,3.37l1.57,4.54c2.66-1.72,6.34-2.82,9.87-2.82,7.75,0,8.62,5.64,8.62,8.77v.78c-14.65-.08-22.79,4.94-22.79,14.1,0,5.48,3.92,10.89,11.59,10.89,5.4,0,9.48-2.66,11.59-5.64h.23l.55,4.78h6.27c-.47-2.58-.63-5.8-.63-9.09v-14.17Zm-6.66,10.5c0,.7-.16,1.49-.39,2.19-1.1,3.21-4.23,6.35-9.16,6.35-3.53,0-6.5-2.11-6.5-6.58,0-7.36,8.54-8.69,16.06-8.54v6.58Z"></path></g></g></svg>